# xmcd
#
# Track frame offsets:
#	150
#	17405
#	33430
#	52581
#	66972
#	92077
#	109884
#	134836
#	152114
#	168588
#	188939
#
# Disc length: 2707 seconds
#
# Revision: 1
# Processed by: cddbd v1.5.2PL0 Copyright (c) Steve Scherf et al.
# Submitted via: audiograbber 1.83.01
#
DISCID=910a910b
DTITLE=PlowDog - Breakin New Ground
DYEAR=1900
DGENRE=
TTITLE0=Mountain
TTITLE1=No More Lies
TTITLE2=You Don't Know
TTITLE3=Girls
TTITLE4=Standing In The Rain
TTITLE5=Stopped On A Dime
TTITLE6=Down By The Sea
TTITLE7=Friends
TTITLE8=Breakin' New Ground
TTITLE9=Runnin Bird
TTITLE10=Sutterville
EXTD=
EXTT0=
EXTT1=
EXTT2=
EXTT3=
EXTT4=
EXTT5=
EXTT6=
EXTT7=
EXTT8=
EXTT9=
EXTT10=
PLAYORDER=
